# xmcd
#
# Track frame offsets:
#	150
#	11744
#	30051
#	42532
#	54339
#	70702
#	87248
#	103646
#	121480
#	134671
#	150189
#	164310
#	177041
#	192875
#	212770
#	228034
#	245144
#	259828
#	276750
#	291203
#
# Disc length: 4063 seconds
#
# Revision: 1
# Processed by: cddbd v1.4PL0 Copyright (c) Steve Scherf et al.
# Submitted via: audiograbber 1.81.03
#
DISCID=0f0fdd14
DTITLE=Various Artist - Hott Country 59
DYEAR=2000
DGENRE=Country
TTITLE0=Alan Jackson - www.memory
TTITLE1=Julian Austin - Baby Bye Bye
TTITLE2=Yankee Grey - Untamed
TTITLE3=Eric Heatherly - Wrong 5 o'Clock
TTITLE4=Diamond Rio - One More Day
TTITLE5=Toby Keith - You Shouldn't Kiss Me Like That
TTITLE6=Bryan White - How Long
TTITLE7=Jamie O'Neil - There Is No Arizona
TTITLE8=Dwight Yoakam - What Do You Know About Love
TTITLE9=Colin Raye - She's All That
TTITLE10=Darryl Worley - A Good Day To Run
TTITLE11=Trick Pony - Pour Me
TTITLE12=Reba McEntire - We're So Good Together
TTITLE13=Lace - I Cry Real Tears
TTITLE14=Patty Loveless - The Last Thing On My Mind
TTITLE15=Amanda Stott - You're Not Alone
TTITLE16=Warren Brothers - Move On
TTITLE17=Paul Brandt - What I Want To Be Remembered For
TTITLE18=Kinleys - You're Still Here
TTITLE19=Mark Chesnutt - Lost In The Feeling
EXTD=
EXTT0=
EXTT1=
EXTT2=
EXTT3=
EXTT4=
EXTT5=
EXTT6=
EXTT7=
EXTT8=
EXTT9=
EXTT10=
EXTT11=
EXTT12=
EXTT13=
EXTT14=
EXTT15=
EXTT16=
EXTT17=
EXTT18=
EXTT19=
PLAYORDER=
